<svg xmlns="http://www.w3.org/2000/svg" xmlns:xlink="http://www.w3.org/1999/xlink" width="500" zoomAndPan="magnify" viewBox="0 0 375 374.999991" height="500" preserveAspectRatio="xMidYMid meet" version="1.0"><defs><g/><clipPath id="6e6bbf3d10"><path d="M 170 78.203125 L 208 78.203125 L 208 114 L 170 114 Z M 170 78.203125 " clip-rule="nonzero"/></clipPath></defs><rect x="-37.5" width="450" fill="#ffffff" y="-37.499999" height="449.999989" fill-opacity="1"/><rect x="-37.5" width="450" fill="#ffffff" y="-37.499999" height="449.999989" fill-opacity="1"/><path fill="#83cd2d" d="M 202.371094 123.488281 C 211.289062 117.648438 221.863281 153.640625 232.523438 153.640625 C 243.179688 153.640625 252.394531 117.898438 262.671875 123.488281 C 270.699219 127.859375 235.714844 154.675781 250.023438 168.980469 C 257.210938 176.167969 293.613281 180.199219 291.351562 188.832031 C 288.640625 199.140625 255.773438 183.992188 248.835938 192.082031 C 241.890625 200.175781 255.917969 217.535156 246.140625 221.78125 C 235.164062 226.542969 232.46875 200.933594 228.269531 180.667969 C 223.371094 157.0625 193.820312 129.085938 202.371094 123.488281 " fill-opacity="1" fill-rule="nonzero"/><path fill="#83cd2d" d="M 232.523438 148.515625 C 228.289062 148.515625 224.855469 144.527344 224.855469 139.609375 C 224.855469 134.691406 228.289062 130.703125 232.523438 130.703125 C 236.757812 130.703125 240.1875 134.691406 240.1875 139.609375 C 240.1875 144.527344 236.757812 148.515625 232.523438 148.515625 " fill-opacity="1" fill-rule="nonzero"/><path fill="#f68c11" d="M 180.71875 140.101562 C 188.730469 140.53125 179.117188 167.078125 185.589844 171.828125 C 192.058594 176.578125 213.566406 158.988281 217.3125 166.957031 C 220.242188 173.1875 187.066406 173.878906 189.375 188.929688 C 190.539062 196.496094 210.835938 215.15625 205.617188 219.382812 C 199.382812 224.4375 186.179688 200.605469 178.367188 202.421875 C 170.550781 204.242188 171.328125 221.023438 163.503906 219.246094 C 154.722656 217.246094 164.496094 200.503906 170.96875 186.335938 C 178.511719 169.832031 173.039062 139.691406 180.71875 140.101562 " fill-opacity="1" fill-rule="nonzero"/><path fill="#f68c11" d="M 187.871094 168.71875 C 185.300781 166.832031 184.992188 162.882812 187.183594 159.898438 C 189.375 156.914062 193.234375 156.023438 195.804688 157.90625 C 198.371094 159.792969 198.679688 163.742188 196.488281 166.726562 C 194.300781 169.710938 190.441406 170.601562 187.871094 168.71875 " fill-opacity="1" fill-rule="nonzero"/><path fill="#ed166d" d="M 172.613281 123.488281 C 163.695312 117.648438 153.121094 153.640625 142.460938 153.640625 C 131.800781 153.640625 122.585938 117.898438 112.3125 123.488281 C 104.28125 127.859375 139.265625 154.675781 124.960938 168.980469 C 117.773438 176.167969 81.367188 180.199219 83.632812 188.832031 C 86.339844 199.140625 119.207031 183.992188 126.148438 192.082031 C 133.089844 200.175781 119.066406 217.535156 128.84375 221.78125 C 139.820312 226.542969 142.515625 200.933594 146.714844 180.667969 C 151.613281 157.0625 181.160156 129.089844 172.613281 123.488281 " fill-opacity="1" fill-rule="nonzero"/><path fill="#ed166d" d="M 142.460938 148.515625 C 146.695312 148.515625 150.128906 144.527344 150.128906 139.609375 C 150.128906 134.691406 146.695312 130.703125 142.460938 130.703125 C 138.226562 130.703125 134.792969 134.691406 134.792969 139.609375 C 134.792969 144.527344 138.226562 148.515625 142.460938 148.515625 " fill-opacity="1" fill-rule="nonzero"/><g clip-path="url(#6e6bbf3d10)"><path fill="#f68c11" d="M 188.753906 78.199219 L 194.472656 89.785156 L 207.253906 91.644531 L 198.003906 100.660156 L 200.1875 113.394531 L 188.753906 107.382812 L 177.320312 113.394531 L 179.503906 100.660156 L 170.253906 91.644531 L 183.035156 89.785156 L 188.753906 78.199219 " fill-opacity="1" fill-rule="nonzero"/></g><path fill="#ed166d" d="M 153.316406 108.808594 L 155.386719 113 L 160.011719 113.671875 L 156.664062 116.933594 L 157.453125 121.539062 L 153.316406 119.363281 L 149.179688 121.539062 L 149.96875 116.933594 L 146.625 113.671875 L 151.25 113 L 153.316406 108.808594 " fill-opacity="1" fill-rule="nonzero"/><path fill="#5080d7" d="M 187.167969 118.996094 L 189.234375 123.1875 L 193.859375 123.859375 L 190.511719 127.125 L 191.304688 131.730469 L 187.167969 129.554688 L 183.027344 131.730469 L 183.820312 127.125 L 180.472656 123.859375 L 185.097656 123.1875 L 187.167969 118.996094 " fill-opacity="1" fill-rule="nonzero"/><path fill="#ee1d70" d="M 224.855469 113.394531 L 226.511719 116.746094 L 230.210938 117.285156 L 227.535156 119.894531 L 228.164062 123.582031 L 224.855469 121.84375 L 221.542969 123.582031 L 222.175781 119.894531 L 219.496094 117.285156 L 223.199219 116.746094 L 224.855469 113.394531 " fill-opacity="1" fill-rule="nonzero"/><path fill="#5080d7" d="M 218.539062 105.507812 C 218.539062 107.433594 216.976562 108.996094 215.050781 108.996094 C 213.125 108.996094 211.566406 107.433594 211.566406 105.507812 C 211.566406 103.582031 213.125 102.023438 215.050781 102.023438 C 216.976562 102.023438 218.539062 103.582031 218.539062 105.507812 " fill-opacity="1" fill-rule="nonzero"/><path fill="#ed166d" d="M 247.160156 119.734375 C 247.160156 121.253906 245.929688 122.484375 244.410156 122.484375 C 242.894531 122.484375 241.664062 121.253906 241.664062 119.734375 C 241.664062 118.214844 242.894531 116.984375 244.410156 116.984375 C 245.929688 116.984375 247.160156 118.214844 247.160156 119.734375 " fill-opacity="1" fill-rule="nonzero"/><path fill="#ee1d70" d="M 167.582031 108.996094 C 167.582031 110.46875 166.386719 111.664062 164.910156 111.664062 C 163.433594 111.664062 162.238281 110.46875 162.238281 108.996094 C 162.238281 107.519531 163.433594 106.324219 164.910156 106.324219 C 166.386719 106.324219 167.582031 107.519531 167.582031 108.996094 " fill-opacity="1" fill-rule="nonzero"/><g fill="#f68c11" fill-opacity="1"><g transform="translate(101.556627, 259.645316)"><g><path d="M 2.695312 0 L 7.800781 0 L 7.800781 -6.261719 L 11.492188 -6.261719 C 16.917969 -6.261719 20.417969 -9.4375 20.417969 -14.351562 C 20.417969 -19.292969 16.917969 -22.472656 11.492188 -22.472656 L 2.695312 -22.472656 Z M 7.769531 -10.65625 L 7.769531 -18.007812 L 11.074219 -18.007812 C 13.738281 -18.007812 15.214844 -16.660156 15.214844 -14.316406 C 15.214844 -11.972656 13.738281 -10.65625 11.074219 -10.65625 Z M 7.769531 -10.65625 "/></g></g></g><g fill="#f68c11" fill-opacity="1"><g transform="translate(122.903775, 259.645316)"><g><path d="M 2.695312 0 L 7.800781 0 L 7.800781 -7 L 11.171875 -7 L 15.183594 0 L 21.089844 0 L 16.4375 -7.800781 C 19.132812 -8.988281 20.707031 -11.429688 20.707031 -14.734375 C 20.707031 -19.519531 17.429688 -22.472656 12.296875 -22.472656 L 2.695312 -22.472656 Z M 7.738281 -11.300781 L 7.738281 -18.105469 L 11.621094 -18.105469 C 14.125 -18.105469 15.539062 -16.886719 15.539062 -14.703125 C 15.539062 -12.519531 14.125 -11.300781 11.621094 -11.300781 Z M 7.738281 -11.300781 "/></g></g></g><g fill="#f68c11" fill-opacity="1"><g transform="translate(145.502865, 259.645316)"><g><path d="M 2.695312 0 L 7.800781 0 L 7.800781 -22.472656 L 2.695312 -22.472656 Z M 2.695312 0 "/></g></g></g><g fill="#f68c11" fill-opacity="1"><g transform="translate(155.999889, 259.645316)"><g><path d="M 2.695312 0 L 7.769531 0 L 7.769531 -13.546875 L 13.226562 -5.554688 L 16.757812 -5.554688 L 22.214844 -13.515625 L 22.214844 0 L 27.285156 0 L 27.285156 -22.472656 L 22.984375 -22.472656 L 15.023438 -10.820312 L 7.03125 -22.472656 L 2.695312 -22.472656 Z M 2.695312 0 "/></g></g></g><g fill="#f68c11" fill-opacity="1"><g transform="translate(185.982202, 259.645316)"><g><path d="M 2.695312 0 L 17.816406 0 L 17.816406 -4.332031 L 7.769531 -4.332031 L 7.769531 -9.246094 L 16.597656 -9.246094 L 16.597656 -13.515625 L 7.769531 -13.515625 L 7.769531 -18.167969 L 17.464844 -18.167969 L 17.464844 -22.472656 L 2.695312 -22.472656 Z M 2.695312 0 "/></g></g></g><g fill="#f68c11" fill-opacity="1"><g transform="translate(205.435393, 259.645316)"><g><path d="M 2.695312 0 L 17.816406 0 L 17.816406 -4.332031 L 7.769531 -4.332031 L 7.769531 -9.246094 L 16.597656 -9.246094 L 16.597656 -13.515625 L 7.769531 -13.515625 L 7.769531 -18.167969 L 17.464844 -18.167969 L 17.464844 -22.472656 L 2.695312 -22.472656 Z M 2.695312 0 "/></g></g></g><g fill="#f68c11" fill-opacity="1"><g transform="translate(224.888585, 259.645316)"><g><path d="M 2.695312 0 L 11.589844 0 C 18.683594 0 23.433594 -4.527344 23.433594 -11.234375 C 23.433594 -17.914062 18.683594 -22.472656 11.589844 -22.472656 L 2.695312 -22.472656 Z M 7.800781 -4.6875 L 7.800781 -17.785156 L 11.429688 -17.785156 C 15.472656 -17.785156 18.203125 -15.183594 18.203125 -11.234375 C 18.203125 -7.289062 15.472656 -4.6875 11.492188 -4.6875 Z M 7.800781 -4.6875 "/></g></g></g><g fill="#f68c11" fill-opacity="1"><g transform="translate(249.670546, 259.645316)"><g><path d="M 11.878906 0.449219 C 17.71875 0.449219 21.285156 -3.210938 21.285156 -9.246094 L 21.285156 -22.472656 L 16.179688 -22.472656 L 16.179688 -9.597656 C 16.179688 -6.164062 14.734375 -4.398438 11.878906 -4.398438 C 9.019531 -4.398438 7.574219 -6.164062 7.574219 -9.597656 L 7.574219 -22.472656 L 2.472656 -22.472656 L 2.472656 -9.246094 C 2.472656 -3.210938 6.035156 0.449219 11.878906 0.449219 Z M 11.878906 0.449219 "/></g></g></g></svg>