<svg xmlns="http://www.w3.org/2000/svg" xmlns:xlink="http://www.w3.org/1999/xlink" width="322" zoomAndPan="magnify" viewBox="0 0 241.5 67.499998" height="90" preserveAspectRatio="xMidYMid meet" version="1.0"><defs><g/></defs><g fill="#000000" fill-opacity="1"><g transform="translate(4.385659, 44.341689)"><g><path d="M 3.0625 -42.015625 L 18.390625 -42.015625 C 22.671875 -42.015625 26.132812 -40.910156 28.78125 -38.703125 C 31.425781 -36.503906 32.75 -33.296875 32.75 -29.078125 C 32.75 -24.867188 31.40625 -21.566406 28.71875 -19.171875 C 26.039062 -16.785156 22.597656 -15.59375 18.390625 -15.59375 L 12.625 -15.59375 L 12.625 0 L 3.0625 0 Z M 12.625 -23.234375 L 15.328125 -23.234375 C 17.472656 -23.234375 19.234375 -23.664062 20.609375 -24.53125 C 21.984375 -25.394531 22.671875 -26.8125 22.671875 -28.78125 C 22.671875 -30.78125 21.984375 -32.210938 20.609375 -33.078125 C 19.234375 -33.941406 17.472656 -34.375 15.328125 -34.375 L 12.625 -34.375 Z M 12.625 -23.234375 "/></g></g></g><g fill="#000000" fill-opacity="1"><g transform="translate(33.515081, 44.341689)"><g><path d="M 3.0625 0 L 3.0625 -26.125 L 12.078125 -26.125 L 12.078125 -22.359375 L 12.171875 -22.359375 C 12.242188 -22.492188 12.351562 -22.660156 12.5 -22.859375 C 12.65625 -23.066406 12.988281 -23.425781 13.5 -23.9375 C 14.007812 -24.445312 14.550781 -24.90625 15.125 -25.3125 C 15.707031 -25.71875 16.457031 -26.082031 17.375 -26.40625 C 18.289062 -26.726562 19.222656 -26.890625 20.171875 -26.890625 C 21.148438 -26.890625 22.113281 -26.753906 23.0625 -26.484375 C 24.019531 -26.210938 24.71875 -25.941406 25.15625 -25.671875 L 25.875 -25.265625 L 22.109375 -17.625 C 20.984375 -18.570312 19.421875 -19.046875 17.421875 -19.046875 C 16.335938 -19.046875 15.40625 -18.804688 14.625 -18.328125 C 13.84375 -17.859375 13.289062 -17.285156 12.96875 -16.609375 C 12.644531 -15.929688 12.414062 -15.351562 12.28125 -14.875 C 12.144531 -14.394531 12.078125 -14.019531 12.078125 -13.75 L 12.078125 0 Z M 3.0625 0 "/></g></g></g><g fill="#000000" fill-opacity="1"><g transform="translate(54.088601, 44.341689)"><g><path d="M 3.921875 -40.703125 C 4.972656 -41.753906 6.226562 -42.28125 7.6875 -42.28125 C 9.144531 -42.28125 10.398438 -41.753906 11.453125 -40.703125 C 12.515625 -39.648438 13.046875 -38.390625 13.046875 -36.921875 C 13.046875 -35.460938 12.515625 -34.207031 11.453125 -33.15625 C 10.398438 -32.101562 9.144531 -31.578125 7.6875 -31.578125 C 6.226562 -31.578125 4.972656 -32.101562 3.921875 -33.15625 C 2.867188 -34.207031 2.34375 -35.460938 2.34375 -36.921875 C 2.34375 -38.390625 2.867188 -39.648438 3.921875 -40.703125 Z M 3.0625 -26.125 L 3.0625 0 L 12.078125 0 L 12.078125 -26.125 Z M 3.0625 -26.125 "/></g></g></g><g fill="#000000" fill-opacity="1"><g transform="translate(64.680236, 44.341689)"><g><path d="M 3.0625 0 L 3.0625 -26.125 L 12.078125 -26.125 L 12.078125 -23.375 L 12.171875 -23.375 C 14.515625 -25.71875 17.007812 -26.890625 19.65625 -26.890625 C 21.5625 -26.890625 23.34375 -26.5 25 -25.71875 C 26.664062 -24.9375 27.925781 -23.734375 28.78125 -22.109375 C 31.425781 -25.296875 34.3125 -26.890625 37.4375 -26.890625 C 40.21875 -26.890625 42.609375 -26.109375 44.609375 -24.546875 C 46.617188 -22.984375 47.625 -20.539062 47.625 -17.21875 L 47.625 0 L 38.609375 0 L 38.609375 -14.765625 C 38.609375 -16.160156 38.222656 -17.320312 37.453125 -18.25 C 36.691406 -19.1875 35.550781 -19.65625 34.03125 -19.65625 C 32.707031 -19.65625 31.695312 -19.253906 31 -18.453125 C 30.300781 -17.660156 29.914062 -16.707031 29.84375 -15.59375 L 29.84375 0 L 20.828125 0 L 20.828125 -14.765625 C 20.828125 -16.160156 20.445312 -17.320312 19.6875 -18.25 C 18.925781 -19.1875 17.78125 -19.65625 16.25 -19.65625 C 14.851562 -19.65625 13.804688 -19.222656 13.109375 -18.359375 C 12.421875 -17.492188 12.078125 -16.46875 12.078125 -15.28125 L 12.078125 0 Z M 3.0625 0 "/></g></g></g><g fill="#000000" fill-opacity="1"><g transform="translate(110.055693, 44.341689)"><g><path d="M 29.5 -11.8125 L 10.546875 -11.8125 C 10.546875 -9.976562 11.140625 -8.617188 12.328125 -7.734375 C 13.515625 -6.859375 14.804688 -6.421875 16.203125 -6.421875 C 17.660156 -6.421875 18.8125 -6.613281 19.65625 -7 C 20.507812 -7.394531 21.476562 -8.171875 22.5625 -9.328125 L 29.078125 -6.0625 C 26.367188 -1.507812 21.851562 0.765625 15.53125 0.765625 C 11.59375 0.765625 8.210938 -0.582031 5.390625 -3.28125 C 2.578125 -5.976562 1.171875 -9.226562 1.171875 -13.03125 C 1.171875 -16.84375 2.578125 -20.101562 5.390625 -22.8125 C 8.210938 -25.53125 11.59375 -26.890625 15.53125 -26.890625 C 19.675781 -26.890625 23.046875 -25.691406 25.640625 -23.296875 C 28.242188 -20.910156 29.546875 -17.492188 29.546875 -13.046875 C 29.546875 -12.429688 29.53125 -12.019531 29.5 -11.8125 Z M 10.796875 -16.8125 L 20.734375 -16.8125 C 20.523438 -18.164062 19.988281 -19.207031 19.125 -19.9375 C 18.257812 -20.664062 17.148438 -21.03125 15.796875 -21.03125 C 14.296875 -21.03125 13.101562 -20.640625 12.21875 -19.859375 C 11.34375 -19.078125 10.867188 -18.0625 10.796875 -16.8125 Z M 10.796875 -16.8125 "/></g></g></g><g fill="#000000" fill-opacity="1"><g transform="translate(135.976646, 44.341689)"><g><path d="M 27.09375 -42.015625 L 27.09375 -33.625 L 12.625 -33.625 L 12.625 -25.265625 L 26.484375 -25.265625 L 26.484375 -16.859375 L 12.625 -16.859375 L 12.625 -8.40625 L 27.09375 -8.40625 L 27.09375 0 L 3.0625 0 L 3.0625 -42.015625 Z M 27.09375 -42.015625 "/></g></g></g><g fill="#000000" fill-opacity="1"><g transform="translate(160.726252, 44.341689)"><g><path d="M 4.828125 -3.234375 C 2.390625 -5.898438 1.171875 -9.164062 1.171875 -13.03125 C 1.171875 -16.90625 2.390625 -20.179688 4.828125 -22.859375 C 7.273438 -25.546875 10.382812 -26.890625 14.15625 -26.890625 C 17.625 -26.890625 20.476562 -25.804688 22.71875 -23.640625 L 22.71875 -43.8125 L 31.734375 -43.8125 L 31.734375 0 L 22.8125 0 L 22.8125 -2.953125 L 22.71875 -2.953125 C 20.476562 -0.472656 17.625 0.765625 14.15625 0.765625 C 10.382812 0.765625 7.273438 -0.566406 4.828125 -3.234375 Z M 12.5 -17.46875 C 11.332031 -16.3125 10.75 -14.832031 10.75 -13.03125 C 10.75 -11.238281 11.304688 -9.769531 12.421875 -8.625 C 13.546875 -7.488281 15.023438 -6.921875 16.859375 -6.921875 C 18.628906 -6.921875 20.082031 -7.5 21.21875 -8.65625 C 22.351562 -9.8125 22.921875 -11.273438 22.921875 -13.046875 C 22.921875 -14.835938 22.332031 -16.3125 21.15625 -17.46875 C 19.988281 -18.625 18.554688 -19.203125 16.859375 -19.203125 C 15.128906 -19.203125 13.675781 -18.625 12.5 -17.46875 Z M 12.5 -17.46875 "/></g></g></g><g fill="#000000" fill-opacity="1"><g transform="translate(190.721449, 44.341689)"><g><path d="M 11.5625 -26.125 L 11.5625 -13.703125 C 11.5625 -11.117188 11.953125 -9.285156 12.734375 -8.203125 C 13.515625 -7.117188 14.835938 -6.578125 16.703125 -6.578125 C 18.578125 -6.578125 19.90625 -7.117188 20.6875 -8.203125 C 21.46875 -9.285156 21.859375 -11.117188 21.859375 -13.703125 L 21.859375 -26.125 L 30.875 -26.125 L 30.875 -11.515625 C 30.875 -7.160156 29.742188 -4.023438 27.484375 -2.109375 C 25.222656 -0.191406 21.628906 0.765625 16.703125 0.765625 C 11.785156 0.765625 8.195312 -0.191406 5.9375 -2.109375 C 3.675781 -4.023438 2.546875 -7.160156 2.546875 -11.515625 L 2.546875 -26.125 Z M 11.5625 -26.125 "/></g></g></g><g fill="#000000" fill-opacity="1"><g transform="translate(219.341592, 44.341689)"><g><path d="M 8.859375 -10.90625 C 10.492188 -10.90625 11.878906 -10.332031 13.015625 -9.1875 C 14.148438 -8.050781 14.71875 -6.671875 14.71875 -5.046875 C 14.71875 -3.453125 14.148438 -2.082031 13.015625 -0.9375 C 11.878906 0.195312 10.492188 0.765625 8.859375 0.765625 C 7.265625 0.765625 5.898438 0.195312 4.765625 -0.9375 C 3.628906 -2.082031 3.0625 -3.453125 3.0625 -5.046875 C 3.0625 -6.671875 3.628906 -8.050781 4.765625 -9.1875 C 5.898438 -10.332031 7.265625 -10.90625 8.859375 -10.90625 Z M 8.859375 -10.90625 "/></g></g></g><g fill="#000000" fill-opacity="1"><g transform="translate(70.011352, 64.239294)"><g><path d="M 3.0625 -5.5 C 3.601562 -5.5 4.050781 -5.410156 4.40625 -5.234375 C 4.769531 -5.066406 4.953125 -4.847656 4.953125 -4.578125 C 4.953125 -4.460938 4.910156 -4.359375 4.828125 -4.265625 C 4.753906 -4.171875 4.660156 -4.125 4.546875 -4.125 C 4.460938 -4.125 4.394531 -4.140625 4.34375 -4.171875 C 4.289062 -4.203125 4.21875 -4.25 4.125 -4.3125 C 4.082031 -4.34375 4.019531 -4.390625 3.9375 -4.453125 C 3.851562 -4.492188 3.734375 -4.523438 3.578125 -4.546875 C 3.429688 -4.578125 3.296875 -4.59375 3.171875 -4.59375 C 2.816406 -4.59375 2.503906 -4.507812 2.234375 -4.34375 C 1.960938 -4.175781 1.75 -3.945312 1.59375 -3.65625 C 1.445312 -3.375 1.375 -3.054688 1.375 -2.703125 C 1.375 -2.335938 1.445312 -2.007812 1.59375 -1.71875 C 1.738281 -1.4375 1.941406 -1.210938 2.203125 -1.046875 C 2.472656 -0.878906 2.78125 -0.796875 3.125 -0.796875 C 3.476562 -0.796875 3.765625 -0.851562 3.984375 -0.96875 C 4.035156 -0.988281 4.101562 -1.03125 4.1875 -1.09375 C 4.25 -1.144531 4.304688 -1.1875 4.359375 -1.21875 C 4.410156 -1.25 4.472656 -1.265625 4.546875 -1.265625 C 4.679688 -1.265625 4.785156 -1.21875 4.859375 -1.125 C 4.941406 -1.039062 4.984375 -0.929688 4.984375 -0.796875 C 4.984375 -0.648438 4.894531 -0.503906 4.71875 -0.359375 C 4.539062 -0.222656 4.296875 -0.109375 3.984375 -0.015625 C 3.679688 0.0664062 3.359375 0.109375 3.015625 0.109375 C 2.492188 0.109375 2.035156 -0.0078125 1.640625 -0.25 C 1.242188 -0.5 0.9375 -0.835938 0.71875 -1.265625 C 0.507812 -1.691406 0.40625 -2.171875 0.40625 -2.703125 C 0.40625 -3.222656 0.515625 -3.695312 0.734375 -4.125 C 0.960938 -4.550781 1.273438 -4.882812 1.671875 -5.125 C 2.078125 -5.375 2.539062 -5.5 3.0625 -5.5 Z M 3.0625 -5.5 "/></g></g></g><g fill="#000000" fill-opacity="1"><g transform="translate(81.962513, 64.239294)"><g><path d="M 5.8125 -2.6875 C 5.8125 -2.15625 5.691406 -1.675781 5.453125 -1.25 C 5.210938 -0.820312 4.882812 -0.488281 4.46875 -0.25 C 4.0625 -0.0078125 3.609375 0.109375 3.109375 0.109375 C 2.609375 0.109375 2.148438 -0.0078125 1.734375 -0.25 C 1.328125 -0.488281 1.003906 -0.820312 0.765625 -1.25 C 0.523438 -1.675781 0.40625 -2.15625 0.40625 -2.6875 C 0.40625 -3.21875 0.523438 -3.695312 0.765625 -4.125 C 1.003906 -4.5625 1.328125 -4.898438 1.734375 -5.140625 C 2.148438 -5.378906 2.609375 -5.5 3.109375 -5.5 C 3.609375 -5.5 4.0625 -5.378906 4.46875 -5.140625 C 4.882812 -4.898438 5.210938 -4.5625 5.453125 -4.125 C 5.691406 -3.695312 5.8125 -3.21875 5.8125 -2.6875 Z M 4.84375 -2.6875 C 4.84375 -3.050781 4.765625 -3.378906 4.609375 -3.671875 C 4.453125 -3.960938 4.242188 -4.1875 3.984375 -4.34375 C 3.722656 -4.507812 3.429688 -4.59375 3.109375 -4.59375 C 2.785156 -4.59375 2.488281 -4.507812 2.21875 -4.34375 C 1.957031 -4.1875 1.75 -3.960938 1.59375 -3.671875 C 1.445312 -3.378906 1.375 -3.050781 1.375 -2.6875 C 1.375 -2.320312 1.445312 -1.992188 1.59375 -1.703125 C 1.75 -1.421875 1.957031 -1.195312 2.21875 -1.03125 C 2.488281 -0.875 2.785156 -0.796875 3.109375 -0.796875 C 3.429688 -0.796875 3.722656 -0.875 3.984375 -1.03125 C 4.242188 -1.195312 4.453125 -1.421875 4.609375 -1.703125 C 4.765625 -1.992188 4.84375 -2.320312 4.84375 -2.6875 Z M 4.84375 -2.6875 "/></g></g></g><g fill="#000000" fill-opacity="1"><g transform="translate(94.856329, 64.239294)"><g><path d="M 0.421875 -0.84375 C 0.359375 -0.9375 0.328125 -1.03125 0.328125 -1.125 C 0.328125 -1.257812 0.398438 -1.375 0.546875 -1.46875 C 0.609375 -1.507812 0.6875 -1.53125 0.78125 -1.53125 C 0.90625 -1.53125 1.019531 -1.484375 1.125 -1.390625 C 1.320312 -1.148438 1.535156 -0.972656 1.765625 -0.859375 C 2.003906 -0.742188 2.289062 -0.6875 2.625 -0.6875 C 2.882812 -0.695312 3.113281 -0.753906 3.3125 -0.859375 C 3.507812 -0.972656 3.609375 -1.160156 3.609375 -1.421875 C 3.609375 -1.648438 3.503906 -1.820312 3.296875 -1.9375 C 3.097656 -2.0625 2.804688 -2.175781 2.421875 -2.28125 C 2.035156 -2.382812 1.71875 -2.492188 1.46875 -2.609375 C 1.21875 -2.722656 1.003906 -2.882812 0.828125 -3.09375 C 0.648438 -3.3125 0.5625 -3.597656 0.5625 -3.953125 C 0.5625 -4.253906 0.648438 -4.519531 0.828125 -4.75 C 1.003906 -4.988281 1.234375 -5.171875 1.515625 -5.296875 C 1.804688 -5.429688 2.125 -5.5 2.46875 -5.5 C 2.800781 -5.5 3.128906 -5.4375 3.453125 -5.3125 C 3.773438 -5.1875 4.039062 -5 4.25 -4.75 C 4.320312 -4.65625 4.359375 -4.554688 4.359375 -4.453125 C 4.359375 -4.335938 4.304688 -4.226562 4.203125 -4.125 C 4.128906 -4.0625 4.046875 -4.03125 3.953125 -4.03125 C 3.828125 -4.03125 3.726562 -4.070312 3.65625 -4.15625 C 3.507812 -4.320312 3.332031 -4.445312 3.125 -4.53125 C 2.914062 -4.625 2.679688 -4.671875 2.421875 -4.671875 C 2.171875 -4.671875 1.953125 -4.617188 1.765625 -4.515625 C 1.585938 -4.410156 1.5 -4.234375 1.5 -3.984375 C 1.5 -3.742188 1.597656 -3.5625 1.796875 -3.4375 C 2.003906 -3.320312 2.316406 -3.210938 2.734375 -3.109375 C 3.097656 -3.015625 3.398438 -2.910156 3.640625 -2.796875 C 3.878906 -2.691406 4.078125 -2.53125 4.234375 -2.3125 C 4.398438 -2.09375 4.484375 -1.8125 4.484375 -1.46875 C 4.484375 -1.144531 4.390625 -0.863281 4.203125 -0.625 C 4.023438 -0.394531 3.785156 -0.210938 3.484375 -0.078125 C 3.191406 0.046875 2.878906 0.109375 2.546875 0.109375 C 2.109375 0.109375 1.707031 0.0351562 1.34375 -0.109375 C 0.976562 -0.265625 0.671875 -0.507812 0.421875 -0.84375 Z M 0.421875 -0.84375 "/></g></g></g><g fill="#000000" fill-opacity="1"><g transform="translate(106.428387, 64.239294)"><g><path d="M 6.890625 -5.46875 C 8.085938 -5.46875 8.6875 -4.722656 8.6875 -3.234375 L 8.6875 -0.484375 C 8.6875 -0.347656 8.640625 -0.234375 8.546875 -0.140625 C 8.460938 -0.046875 8.347656 0 8.203125 0 C 8.054688 0 7.9375 -0.046875 7.84375 -0.140625 C 7.75 -0.234375 7.703125 -0.347656 7.703125 -0.484375 L 7.703125 -3.21875 C 7.703125 -4.113281 7.328125 -4.5625 6.578125 -4.5625 C 6.316406 -4.5625 6.078125 -4.5 5.859375 -4.375 C 5.640625 -4.257812 5.46875 -4.097656 5.34375 -3.890625 C 5.226562 -3.691406 5.171875 -3.46875 5.171875 -3.21875 L 5.171875 -0.484375 C 5.171875 -0.347656 5.125 -0.234375 5.03125 -0.140625 C 4.945312 -0.046875 4.832031 0 4.6875 0 C 4.539062 0 4.421875 -0.046875 4.328125 -0.140625 C 4.242188 -0.234375 4.203125 -0.347656 4.203125 -0.484375 L 4.203125 -3.234375 C 4.203125 -3.628906 4.113281 -3.945312 3.9375 -4.1875 C 3.769531 -4.4375 3.488281 -4.5625 3.09375 -4.5625 C 2.6875 -4.5625 2.351562 -4.429688 2.09375 -4.171875 C 1.832031 -3.921875 1.703125 -3.609375 1.703125 -3.234375 L 1.703125 -0.484375 C 1.703125 -0.347656 1.65625 -0.234375 1.5625 -0.140625 C 1.46875 -0.046875 1.347656 0 1.203125 0 C 1.066406 0 0.953125 -0.046875 0.859375 -0.140625 C 0.773438 -0.234375 0.734375 -0.347656 0.734375 -0.484375 L 0.734375 -4.875 C 0.734375 -5.007812 0.773438 -5.125 0.859375 -5.21875 C 0.953125 -5.320312 1.066406 -5.375 1.203125 -5.375 C 1.347656 -5.375 1.46875 -5.320312 1.5625 -5.21875 C 1.65625 -5.125 1.703125 -5.007812 1.703125 -4.875 L 1.703125 -4.515625 C 1.878906 -4.785156 2.113281 -5.007812 2.40625 -5.1875 C 2.707031 -5.375 3.03125 -5.46875 3.375 -5.46875 C 4.226562 -5.46875 4.78125 -5.085938 5.03125 -4.328125 C 5.1875 -4.617188 5.4375 -4.878906 5.78125 -5.109375 C 6.125 -5.347656 6.492188 -5.46875 6.890625 -5.46875 Z M 6.890625 -5.46875 "/></g></g></g><g fill="#000000" fill-opacity="1"><g transform="translate(122.519009, 64.239294)"><g><path d="M 5.4375 -2.890625 C 5.4375 -2.765625 5.382812 -2.660156 5.28125 -2.578125 C 5.1875 -2.492188 5.078125 -2.453125 4.953125 -2.453125 L 1.34375 -2.453125 C 1.394531 -1.953125 1.582031 -1.550781 1.90625 -1.25 C 2.238281 -0.945312 2.644531 -0.796875 3.125 -0.796875 C 3.457031 -0.796875 3.722656 -0.84375 3.921875 -0.9375 C 4.128906 -1.039062 4.3125 -1.164062 4.46875 -1.3125 C 4.570312 -1.375 4.671875 -1.40625 4.765625 -1.40625 C 4.878906 -1.40625 4.972656 -1.363281 5.046875 -1.28125 C 5.128906 -1.195312 5.171875 -1.101562 5.171875 -1 C 5.171875 -0.851562 5.101562 -0.722656 4.96875 -0.609375 C 4.769531 -0.410156 4.503906 -0.238281 4.171875 -0.09375 C 3.847656 0.0390625 3.515625 0.109375 3.171875 0.109375 C 2.617188 0.109375 2.132812 -0.00390625 1.71875 -0.234375 C 1.300781 -0.472656 0.976562 -0.800781 0.75 -1.21875 C 0.519531 -1.632812 0.40625 -2.109375 0.40625 -2.640625 C 0.40625 -3.210938 0.519531 -3.710938 0.75 -4.140625 C 0.988281 -4.578125 1.300781 -4.910156 1.6875 -5.140625 C 2.070312 -5.378906 2.488281 -5.5 2.9375 -5.5 C 3.375 -5.5 3.78125 -5.382812 4.15625 -5.15625 C 4.539062 -4.925781 4.847656 -4.613281 5.078125 -4.21875 C 5.316406 -3.820312 5.4375 -3.378906 5.4375 -2.890625 Z M 2.9375 -4.59375 C 2.550781 -4.59375 2.21875 -4.484375 1.9375 -4.265625 C 1.65625 -4.054688 1.472656 -3.722656 1.390625 -3.265625 L 4.40625 -3.265625 L 4.40625 -3.359375 C 4.375 -3.710938 4.210938 -4.003906 3.921875 -4.234375 C 3.628906 -4.472656 3.300781 -4.59375 2.9375 -4.59375 Z M 2.9375 -4.59375 "/></g></g></g><g fill="#000000" fill-opacity="1"><g transform="translate(135.043954, 64.239294)"><g><path d="M 2.1875 -4.421875 L 2.1875 -1.359375 C 2.1875 -1.015625 2.335938 -0.84375 2.640625 -0.84375 C 2.691406 -0.84375 2.757812 -0.851562 2.84375 -0.875 C 2.925781 -0.90625 2.988281 -0.921875 3.03125 -0.921875 C 3.125 -0.921875 3.203125 -0.882812 3.265625 -0.8125 C 3.328125 -0.738281 3.359375 -0.640625 3.359375 -0.515625 C 3.359375 -0.378906 3.273438 -0.257812 3.109375 -0.15625 C 2.941406 -0.0507812 2.753906 0 2.546875 0 C 2.328125 0 2.125 -0.0195312 1.9375 -0.0625 C 1.75 -0.113281 1.578125 -0.238281 1.421875 -0.4375 C 1.273438 -0.632812 1.203125 -0.929688 1.203125 -1.328125 L 1.203125 -4.421875 L 0.609375 -4.421875 C 0.484375 -4.421875 0.375 -4.460938 0.28125 -4.546875 C 0.195312 -4.628906 0.15625 -4.738281 0.15625 -4.875 C 0.15625 -5 0.195312 -5.101562 0.28125 -5.1875 C 0.375 -5.269531 0.484375 -5.3125 0.609375 -5.3125 L 1.203125 -5.3125 L 1.203125 -6.171875 C 1.203125 -6.304688 1.25 -6.421875 1.34375 -6.515625 C 1.4375 -6.609375 1.554688 -6.65625 1.703125 -6.65625 C 1.835938 -6.65625 1.953125 -6.609375 2.046875 -6.515625 C 2.140625 -6.421875 2.1875 -6.304688 2.1875 -6.171875 L 2.1875 -5.3125 L 3.03125 -5.3125 C 3.164062 -5.3125 3.273438 -5.265625 3.359375 -5.171875 C 3.441406 -5.085938 3.484375 -4.984375 3.484375 -4.859375 C 3.484375 -4.722656 3.441406 -4.613281 3.359375 -4.53125 C 3.273438 -4.457031 3.164062 -4.421875 3.03125 -4.421875 Z M 2.1875 -4.421875 "/></g></g></g><g fill="#000000" fill-opacity="1"><g transform="translate(145.622134, 64.239294)"><g><path d="M 1.65625 -0.484375 C 1.65625 -0.347656 1.609375 -0.234375 1.515625 -0.140625 C 1.421875 -0.046875 1.300781 0 1.15625 0 C 1.019531 0 0.90625 -0.046875 0.8125 -0.140625 C 0.71875 -0.234375 0.671875 -0.347656 0.671875 -0.484375 L 0.671875 -4.9375 C 0.671875 -5.070312 0.71875 -5.1875 0.8125 -5.28125 C 0.90625 -5.375 1.019531 -5.421875 1.15625 -5.421875 C 1.300781 -5.421875 1.421875 -5.375 1.515625 -5.28125 C 1.609375 -5.1875 1.65625 -5.070312 1.65625 -4.9375 Z M 1.15625 -6.09375 C 0.957031 -6.09375 0.8125 -6.128906 0.71875 -6.203125 C 0.632812 -6.273438 0.59375 -6.390625 0.59375 -6.546875 L 0.59375 -6.71875 C 0.59375 -6.875 0.640625 -6.988281 0.734375 -7.0625 C 0.828125 -7.132812 0.96875 -7.171875 1.15625 -7.171875 C 1.351562 -7.171875 1.492188 -7.132812 1.578125 -7.0625 C 1.660156 -6.988281 1.703125 -6.875 1.703125 -6.71875 L 1.703125 -6.546875 C 1.703125 -6.378906 1.65625 -6.257812 1.5625 -6.1875 C 1.476562 -6.125 1.34375 -6.09375 1.15625 -6.09375 Z M 1.15625 -6.09375 "/></g></g></g><g fill="#000000" fill-opacity="1"><g transform="translate(154.63264, 64.239294)"><g><path d="M 3.0625 -5.5 C 3.601562 -5.5 4.050781 -5.410156 4.40625 -5.234375 C 4.769531 -5.066406 4.953125 -4.847656 4.953125 -4.578125 C 4.953125 -4.460938 4.910156 -4.359375 4.828125 -4.265625 C 4.753906 -4.171875 4.660156 -4.125 4.546875 -4.125 C 4.460938 -4.125 4.394531 -4.140625 4.34375 -4.171875 C 4.289062 -4.203125 4.21875 -4.25 4.125 -4.3125 C 4.082031 -4.34375 4.019531 -4.390625 3.9375 -4.453125 C 3.851562 -4.492188 3.734375 -4.523438 3.578125 -4.546875 C 3.429688 -4.578125 3.296875 -4.59375 3.171875 -4.59375 C 2.816406 -4.59375 2.503906 -4.507812 2.234375 -4.34375 C 1.960938 -4.175781 1.75 -3.945312 1.59375 -3.65625 C 1.445312 -3.375 1.375 -3.054688 1.375 -2.703125 C 1.375 -2.335938 1.445312 -2.007812 1.59375 -1.71875 C 1.738281 -1.4375 1.941406 -1.210938 2.203125 -1.046875 C 2.472656 -0.878906 2.78125 -0.796875 3.125 -0.796875 C 3.476562 -0.796875 3.765625 -0.851562 3.984375 -0.96875 C 4.035156 -0.988281 4.101562 -1.03125 4.1875 -1.09375 C 4.25 -1.144531 4.304688 -1.1875 4.359375 -1.21875 C 4.410156 -1.25 4.472656 -1.265625 4.546875 -1.265625 C 4.679688 -1.265625 4.785156 -1.21875 4.859375 -1.125 C 4.941406 -1.039062 4.984375 -0.929688 4.984375 -0.796875 C 4.984375 -0.648438 4.894531 -0.503906 4.71875 -0.359375 C 4.539062 -0.222656 4.296875 -0.109375 3.984375 -0.015625 C 3.679688 0.0664062 3.359375 0.109375 3.015625 0.109375 C 2.492188 0.109375 2.035156 -0.0078125 1.640625 -0.25 C 1.242188 -0.5 0.9375 -0.835938 0.71875 -1.265625 C 0.507812 -1.691406 0.40625 -2.171875 0.40625 -2.703125 C 0.40625 -3.222656 0.515625 -3.695312 0.734375 -4.125 C 0.960938 -4.550781 1.273438 -4.882812 1.671875 -5.125 C 2.078125 -5.375 2.539062 -5.5 3.0625 -5.5 Z M 3.0625 -5.5 "/></g></g></g><g fill="#000000" fill-opacity="1"><g transform="translate(166.583802, 64.239294)"><g><path d="M 0.421875 -0.84375 C 0.359375 -0.9375 0.328125 -1.03125 0.328125 -1.125 C 0.328125 -1.257812 0.398438 -1.375 0.546875 -1.46875 C 0.609375 -1.507812 0.6875 -1.53125 0.78125 -1.53125 C 0.90625 -1.53125 1.019531 -1.484375 1.125 -1.390625 C 1.320312 -1.148438 1.535156 -0.972656 1.765625 -0.859375 C 2.003906 -0.742188 2.289062 -0.6875 2.625 -0.6875 C 2.882812 -0.695312 3.113281 -0.753906 3.3125 -0.859375 C 3.507812 -0.972656 3.609375 -1.160156 3.609375 -1.421875 C 3.609375 -1.648438 3.503906 -1.820312 3.296875 -1.9375 C 3.097656 -2.0625 2.804688 -2.175781 2.421875 -2.28125 C 2.035156 -2.382812 1.71875 -2.492188 1.46875 -2.609375 C 1.21875 -2.722656 1.003906 -2.882812 0.828125 -3.09375 C 0.648438 -3.3125 0.5625 -3.597656 0.5625 -3.953125 C 0.5625 -4.253906 0.648438 -4.519531 0.828125 -4.75 C 1.003906 -4.988281 1.234375 -5.171875 1.515625 -5.296875 C 1.804688 -5.429688 2.125 -5.5 2.46875 -5.5 C 2.800781 -5.5 3.128906 -5.4375 3.453125 -5.3125 C 3.773438 -5.1875 4.039062 -5 4.25 -4.75 C 4.320312 -4.65625 4.359375 -4.554688 4.359375 -4.453125 C 4.359375 -4.335938 4.304688 -4.226562 4.203125 -4.125 C 4.128906 -4.0625 4.046875 -4.03125 3.953125 -4.03125 C 3.828125 -4.03125 3.726562 -4.070312 3.65625 -4.15625 C 3.507812 -4.320312 3.332031 -4.445312 3.125 -4.53125 C 2.914062 -4.625 2.679688 -4.671875 2.421875 -4.671875 C 2.171875 -4.671875 1.953125 -4.617188 1.765625 -4.515625 C 1.585938 -4.410156 1.5 -4.234375 1.5 -3.984375 C 1.5 -3.742188 1.597656 -3.5625 1.796875 -3.4375 C 2.003906 -3.320312 2.316406 -3.210938 2.734375 -3.109375 C 3.097656 -3.015625 3.398438 -2.910156 3.640625 -2.796875 C 3.878906 -2.691406 4.078125 -2.53125 4.234375 -2.3125 C 4.398438 -2.09375 4.484375 -1.8125 4.484375 -1.46875 C 4.484375 -1.144531 4.390625 -0.863281 4.203125 -0.625 C 4.023438 -0.394531 3.785156 -0.210938 3.484375 -0.078125 C 3.191406 0.046875 2.878906 0.109375 2.546875 0.109375 C 2.109375 0.109375 1.707031 0.0351562 1.34375 -0.109375 C 0.976562 -0.265625 0.671875 -0.507812 0.421875 -0.84375 Z M 0.421875 -0.84375 "/></g></g></g></svg>